<svg xmlns="http://www.w3.org/2000/svg" viewBox="0 0 32 32" width="32" height="32">
  <!-- Background: rounded square in brand blue -->
  <rect width="32" height="32" rx="7" fill="#1a4b8c"/>
  <!-- Stylized paper/document with folded corner -->
  <path d="M9 6h10l4 4v16a1 1 0 0 1-1 1H9a1 1 0 0 1-1-1V7a1 1 0 0 1 1-1z" fill="#ffffff" opacity="0.95"/>
  <path d="M19 6v4h4" fill="none" stroke="#1a4b8c" stroke-width="0.8" opacity="0.4"/>
  <path d="M19 6l4 4h-3a1 1 0 0 1-1-1V6z" fill="#c8d8ed"/>
  <!-- Three horizontal lines representing text/digest -->
  <rect x="11" y="13" width="9" height="1.4" rx="0.7" fill="#1a4b8c" opacity="0.7"/>
  <rect x="11" y="17" width="7" height="1.4" rx="0.7" fill="#1a4b8c" opacity="0.5"/>
  <rect x="11" y="21" width="5" height="1.4" rx="0.7" fill="#1a4b8c" opacity="0.3"/>
</svg>
