<svg xmlns="http://www.w3.org/2000/svg" viewBox="0 0 200 40" width="200" height="40">
  <!-- Icon mark on dark backgrounds -->
  <rect width="36" height="36" x="2" y="2" rx="8" fill="#ffffff"/>
  <path d="M12 8h11l4.5 4.5v17a1.2 1.2 0 0 1-1.2 1.2H12a1.2 1.2 0 0 1-1.2-1.2V9.2A1.2 1.2 0 0 1 12 8z" fill="#1a4b8c" opacity="0.9"/>
  <path d="M23 8l4.5 4.5h-3.3a1.2 1.2 0 0 1-1.2-1.2V8z" fill="#3a6bac"/>
  <rect x="14.5" y="15.5" width="10" height="1.5" rx="0.75" fill="#ffffff" opacity="0.8"/>
  <rect x="14.5" y="19.5" width="7.5" height="1.5" rx="0.75" fill="#ffffff" opacity="0.6"/>
  <rect x="14.5" y="23.5" width="5.5" height="1.5" rx="0.75" fill="#ffffff" opacity="0.4"/>
  <!-- Wordmark (white) -->
  <text x="46" y="27" font-family="'IBM Plex Sans', 'DM Sans', 'Helvetica Neue', Arial, sans-serif" font-size="16" font-weight="600" fill="#ffffff" letter-spacing="-0.3">arXiv Daily Digest</text>
</svg>
